# xmcd CD database file
#
# Track frame offsets:
#	150
#	26167
#	45755
#	68132
#	85055
#	104575
#	122780
#	147587
#	171320
#	192532
#	214040
#	227837
#
# Disc length: 3221 seconds
#
# Revision: 0
# Processed by: cddbd v1.5.2PL0 Copyright (c) Steve Scherf et al.
# Submitted via: CDex 1.70beta2
#
DISCID=ae0c930c
DTITLE=Susanne Abbuehl - Compass
DYEAR=2006
DGENRE=Jazz
TTITLE0=Bathyal
TTITLE1=Black is the color
TTITLE2=Where Flamingos fly
TTITLE3=Lo Fiolaire
TTITLE4=Sea, Sea !
TTITLE5=Don't set Sail
TTITLE6=The Twilight turns from Amethyst
TTITLE7=Primrose
TTITLE8=Bright Cap and Streamers
TTITLE9=a Call for all Demons
TTITLE10=Children's Song No. 1
TTITLE11=in the Dark Pine-Wood
EXTD=YEAR: 2006
EXTT0=
EXTT1=
EXTT2=
EXTT3=
EXTT4=
EXTT5=
EXTT6=
EXTT7=
EXTT8=
EXTT9=
EXTT10=
EXTT11=
PLAYORDER=
